<?xml version="1.0" encoding="utf-8"?>
<!-- Generator: Adobe Illustrator 24.1.0, SVG Export Plug-In . SVG Version: 6.00 Build 0)  -->
<svg version="1.1" id="Layer_1" xmlns="http://www.w3.org/2000/svg" xmlns:xlink="http://www.w3.org/1999/xlink" x="0px" y="0px"
	 viewBox="0 0 479 479" style="enable-background:new 0 0 479 479;" xml:space="preserve">
<style type="text/css">
	.st0{fill:#FFFFFF;}
</style>
<path class="st0" d="M383.1,120.3c-5.8,0-11.7,0.6-17.4,1.7c-4.3-21.6-18.3-39.9-37.9-49.9s-42.7-10.4-62.6-1.1
	c-18.1-49.7-73-75.4-122.7-57.4c-49.7,18.1-75.4,73-57.4,122.7c-43.6,1.4-78,37.4-77.3,81c0.7,43.6,36.1,78.6,79.7,78.7h295.6
	c48.5,0,87.9-39.3,87.9-87.9C471,159.6,431.7,120.3,383.1,120.3z"/>
<path d="M382.8,111.8c-3.8,0-7.7,0.2-11.5,0.7C361,78.9,330,56,294.9,55.9c-8.7,0-17.4,1.4-25.7,4.3C248.7,16,200.2-8.1,152.6,2.4
	S71.1,55.1,71.1,103.8c0,8.4,1.1,16.8,3.1,25c-45.4,6.9-77.8,47.6-74.4,93.3c3.4,45.8,41.4,81.2,87.3,81.4h295.6
	c53,0,95.9-42.9,95.9-95.9S435.8,111.8,382.8,111.8z M382.8,287.5H87.2c-39.4,0.2-71.6-31.4-72.2-70.8c-0.6-39.4,30.6-71.9,70-72.9
	c2.6-0.1,4.9-1.4,6.4-3.5c1.4-2.1,1.8-4.8,0.9-7.2C76.4,87.7,100,38,145.2,21.6s95.2,6.6,112.1,51.6c0.8,2.1,2.4,3.8,4.4,4.6
	c2.1,0.9,4.4,0.8,6.4-0.1c8.4-3.9,17.5-5.9,26.7-5.9c30.4,0.1,56.6,21.5,62.6,51.3c0.9,4.3,5.1,7.1,9.4,6.3c5.2-1,10.5-1.6,15.8-1.6
	c44.1,0,79.9,35.8,79.9,79.9C462.7,251.8,426.9,287.5,382.8,287.5z"/>
</svg>
